<svg width="150" height="35" xmlns="http://www.w3.org/2000/svg"><path d="M15.013.4c3.584 0 6.408.752 8.472 2.256C25.55 4.16 26.581 6.208 26.581 8.8c0 1.856-.52 3.448-1.56 4.776-1.04 1.328-2.472 2.216-4.296 2.664 2.24.416 3.992 1.376 5.256 2.88 1.264 1.504 1.896 3.376 1.896 5.616 0 2.88-1.112 5.144-3.336 6.792C22.317 33.176 19.285 34 15.445 34H.085V.4h14.928zm-.336 13.728c1.664 0 2.968-.368 3.912-1.104.944-.736 1.416-1.76 1.416-3.072 0-1.28-.472-2.272-1.416-2.976-.944-.704-2.248-1.04-3.912-1.008h-8.16v8.16h8.16zm0 14.304c2.048.032 3.648-.352 4.8-1.152 1.152-.8 1.728-1.92 1.728-3.36 0-1.376-.576-2.456-1.728-3.24-1.152-.784-2.752-1.16-4.8-1.128h-8.16v8.88h8.16zM46.776 5.56c2.8 0 5.347.627 7.64 1.88 2.293 1.253 4.1 2.98 5.42 5.18 1.32 2.2 1.98 4.647 1.98 7.34 0 2.693-.66 5.147-1.98 7.36-1.32 2.213-3.127 3.953-5.42 5.22s-4.84 1.9-7.64 1.9-5.347-.633-7.64-1.9c-2.293-1.267-4.1-3-5.42-5.2-1.32-2.2-1.98-4.66-1.98-7.38 0-2.693.66-5.14 1.98-7.34 1.32-2.2 3.12-3.927 5.4-5.18 2.28-1.253 4.833-1.88 7.66-1.88zm.08 5.52a8.354 8.354 0 0 0-4.32 1.18 8.618 8.618 0 0 0-3.16 3.22c-.773 1.36-1.16 2.853-1.16 4.48 0 1.653.393 3.16 1.18 4.52a8.98 8.98 0 0 0 3.16 3.24c1.32.8 2.753 1.2 4.3 1.2a8.042 8.042 0 0 0 4.26-1.18c1.293-.787 2.32-1.867 3.08-3.24.76-1.373 1.14-2.887 1.14-4.54 0-1.627-.38-3.12-1.14-4.48-.76-1.36-1.787-2.433-3.08-3.22a8.042 8.042 0 0 0-4.26-1.18zm32.107-5.52c2.8 0 5.346.627 7.64 1.88 2.293 1.253 4.1 2.98 5.42 5.18 1.32 2.2 1.98 4.647 1.98 7.34 0 2.693-.66 5.147-1.98 7.36-1.32 2.213-3.127 3.953-5.42 5.22-2.294 1.267-4.84 1.9-7.64 1.9s-5.347-.633-7.64-1.9c-2.294-1.267-4.1-3-5.42-5.2-1.32-2.2-1.98-4.66-1.98-7.38 0-2.693.66-5.14 1.98-7.34 1.32-2.2 3.12-3.927 5.4-5.18 2.28-1.253 4.833-1.88 7.66-1.88zm.08 5.52a8.354 8.354 0 0 0-4.32 1.18 8.618 8.618 0 0 0-3.16 3.22c-.774 1.36-1.16 2.853-1.16 4.48 0 1.653.393 3.16 1.18 4.52a8.98 8.98 0 0 0 3.16 3.24c1.32.8 2.753 1.2 4.3 1.2a8.042 8.042 0 0 0 4.26-1.18c1.293-.787 2.32-1.867 3.08-3.24.76-1.373 1.14-2.887 1.14-4.54 0-1.627-.38-3.12-1.14-4.48-.76-1.36-1.787-2.433-3.08-3.22a8.042 8.042 0 0 0-4.26-1.18zM124.789 34h-7.56l-8.08-11.48-4 4.44V34h-6.32V6h6.32v13.04L116.75 6h7.36l-10.56 11.64L124.79 34zm22.627-20.2a21.257 21.257 0 0 0-4.58-2.1c-1.613-.52-2.993-.78-4.14-.78-1.093 0-1.96.2-2.6.6-.64.4-.96.987-.96 1.76 0 .987.46 1.74 1.38 2.26.92.52 2.34 1.06 4.26 1.62s3.5 1.12 4.74 1.68c1.24.56 2.3 1.4 3.18 2.52.88 1.12 1.32 2.6 1.32 4.44 0 1.787-.473 3.327-1.42 4.62-.947 1.293-2.247 2.273-3.9 2.94-1.653.667-3.533 1-5.64 1-2.267 0-4.493-.4-6.68-1.2-2.187-.8-4.08-1.893-5.68-3.28l2.52-5.16a17.037 17.037 0 0 0 4.88 3.08c1.84.773 3.52 1.16 5.04 1.16 1.307 0 2.327-.24 3.06-.72.733-.48 1.1-1.173 1.1-2.08 0-.72-.247-1.313-.74-1.78-.493-.467-1.12-.847-1.88-1.14-.76-.293-1.807-.627-3.14-1-1.92-.533-3.487-1.067-4.7-1.6-1.213-.533-2.26-1.347-3.14-2.44-.88-1.093-1.32-2.547-1.32-4.36 0-1.68.453-3.153 1.36-4.42s2.173-2.24 3.8-2.92c1.627-.68 3.52-1.02 5.68-1.02 1.92 0 3.813.28 5.68.84 1.867.56 3.52 1.307 4.96 2.24l-2.44 5.24z" fill="#fff" fill-rule="evenodd"/></svg>