<svg width="13" height="15" xmlns="http://www.w3.org/2000/svg"><path d="M12.253 9.276c-.485 1.281-1.378 2.27-2.658 2.794V9.276l1.533-1.378L9.595 6.54V4.618c1.397-.097 2.367-1.126 2.367-2.387C11.962.582 10.391 0 9.498 0c-.194 0-.408 0-.718.078v.078c.116 0 .291-.019.349-.019.621 0 1.087.291 1.087.854 0 .427-.349.854-.97.854-1.533 0-3.338-1.242-5.298-1.242-1.746 0-2.95 1.3-2.95 2.62 0 1.3.757 1.727 1.552 2.018l.02-.079c-.252-.156-.426-.427-.426-.854 0-.582.543-1.067 1.222-1.067 1.649 0 4.308 1.378 5.957 1.378h.155v1.94L7.946 7.898l1.533 1.378v2.833c-.64.233-1.3.33-1.979.33-2.561 0-4.191-1.552-4.191-4.133 0-.621.078-1.223.252-1.805l1.281-.563v5.705l2.6-1.145V4.657L3.618 6.365a4.176 4.176 0 0 1 2.135-2.406L5.734 3.9C3.172 4.463.689 6.403.689 9.314.688 12.671 3.521 15 6.82 15c3.493 0 5.472-2.329 5.492-5.724h-.059z" fill-rule="nonzero" fill="#000"/></svg>